<svg xmlns="http://www.w3.org/2000/svg" version="1.1" xmlns:xlink="http://www.w3.org/1999/xlink" width="512" height="512" x="0" y="0" viewBox="0 0 512 512" style="enable-background:new 0 0 512 512" xml:space="preserve" class=""><g><path d="M231.7 273.4c8.2 6.8-1.7 19-10 12.5-35.7-28.5-74.1-47-111-53.5-10.4-2-7.6-17.5 2.8-15.8 39.5 7 80.4 26.6 118.2 56.8zM511 181.5v295.9c0 8.4-7.4 15.3-16.5 15.3H305.9c-6.7 0-13.3-1.5-19-4.2L256 473.8c-12.3 5.1-35.9 20-49.8 18.9H17.5c-9.1 0-16.5-6.8-16.5-15.3V181.5c0-8.4 7.4-15.3 16.5-15.3h17.6v-29.4c0-3.6 2.4-6.8 5.9-7.7 8.1-2.2 16.6-3.9 25.1-5.4V83.6c0-4.3 3.4-7.8 7.7-8 59.4-2.7 125 26.3 181.2 79.8 42.4-70.7 91.9-119.9 137-135.6 2.5-.9 5.2-.5 7.3 1s3.4 3.9 3.4 6.5v50.5c12.4-2 24.7-2.7 36.7-2.2 4.3.2 7.7 3.7 7.7 8v40.3c8.1 1.4 16.3 3 24.5 5.3 3.5 1 5.9 4.1 5.9 7.7v29.4h17.1c9-.1 16.4 6.8 16.4 15.2zM51.1 417.2c49.7-11.3 102.4-7.4 150.5 9.1-35.2-23.8-76.3-40.8-119.2-41.4-6.8.1-16.2 1.5-16.5-7.9.1-78.8 0-158.2.1-237.1-5 .9-10 2-14.9 3.2zm0 30.3h152.7l3.8-1.8c-49.4-19.4-104.8-24.6-156.6-11.9v13.7zm191.6 14.8c-5.2-3-10.5-5.7-15.9-8.2.3.2-17.3 8.4-17.7 8.6-1.1.5-2.3.8-3.5.8H43.1c-4.4 0-8-3.6-8-8V182.3h-18v294.3c.4.1 188.7 0 189.2 0 9.3.8 27.7-10.8 36.4-14.3zm5.3-291.4c-51.5-50.6-111.4-79.2-165.9-79.5-.1 92.2 0 185.4-.1 277.4 54.1-.8 120 30.5 166.5 73.9-.5-1.8.8-270.2-.5-271.8zm190.6 214.2C393.1 383.2 349 401 311.8 426c47.9-16.3 100.1-20 149.5-8.8V143.1c-4.8-1.2-9.6-2.2-14.4-3.1 0 77.8.1 159.5.1 237 .2 4.5-4 8.4-8.4 8.1zm-122.1 56.3c-4 1.3-8 2.8-11.9 4.4l3.6 1.7h152.7v-13.8c-47.5-11.6-98.2-8.1-144.4 7.7zm-22.9-22.3c39.9-28.9 87.5-49.8 137.3-50.3 0-86.4-.1-190.2-.1-277.4-9.3 0-18.8.9-28.3 2.6.1 53.2 0 172 .1 226.8 0 3.4-2.2 6.5-5.4 7.6-32.6 10.9-71.1 45.1-103.6 90.7zm-29.1 14.3c30.3-49.4 82.3-104.1 122.1-118.2 0-77-.1-199.8-.1-276-40 18.8-83.6 65.4-121.5 130.4 0 1-.2 2.1-.5 3zm230.4-251.1h-17.5c.1 21.7 0 268.1-.5 281.2H304.6l-19.4-9.2c-5.3 2.5-10.5 5.2-15.6 8.1 8.3 3.3 26.9 14.9 36.2 14.2.2 0 189.1.1 189.1 0zm-381.5-33.1c-10.4-1.7-13.2 13.8-2.8 15.8 36.9 6.5 75.3 24.9 111 53.5 8.3 6.4 18.2-5.8 10-12.5-37.7-30.3-78.6-49.9-118.2-56.8zm0 142.7c-10.4-1.6-13.2 13.8-2.8 15.8 36.9 6.5 75.3 24.9 111 53.5 8.3 6.4 18.2-5.8 10-12.5-37.7-30.3-78.6-49.9-118.2-56.8z" fill="#f4512a" opacity="1" data-original="#000000" class=""></path></g></svg>