<svg xmlns="http://www.w3.org/2000/svg" version="1.1" xmlns:xlink="http://www.w3.org/1999/xlink" width="512" height="512" x="0" y="0" viewBox="0 0 24 24" style="enable-background:new 0 0 512 512" xml:space="preserve" class=""><g><g fill="#000" fill-rule="evenodd" clip-rule="evenodd"><path d="M10.3 7.5a4.5 4.5 0 0 0-3.417 1.571l-4.175 4.871 8.732 7.353a.87.87 0 0 0 1.12 0l8.732-7.353-4.175-4.87A4.5 4.5 0 0 0 13.7 7.5zm-4.176.92A5.5 5.5 0 0 1 10.3 6.5h3.4a5.5 5.5 0 0 1 4.176 1.92l4.504 5.255a.5.5 0 0 1-.058.707l-9.118 7.678a1.87 1.87 0 0 1-2.409 0l-9.117-7.677a.5.5 0 0 1-.058-.708z" fill="#08cbd8" opacity="1" data-original="#000000"></path><path d="M19.191 1.538A.5.5 0 0 1 19.5 2v8.5h-1V3.207l-4.146 4.147-.707-.708 5-5a.5.5 0 0 1 .544-.108zM4.809 1.538A.5.5 0 0 0 4.5 2v8.5h1V3.207l4.146 4.147.707-.708-5-5a.5.5 0 0 0-.544-.108zM20.224 12.447l-3.513 1.756a4 4 0 0 0-2.211 3.578V20.5h-1V17.78a5 5 0 0 1 2.764-4.472l3.512-1.756zM3.776 12.447l3.513 1.756A4 4 0 0 1 9.5 17.781V20.5h1V17.78a5 5 0 0 0-2.764-4.472l-3.512-1.756z" fill="#08cbd8" opacity="1" data-original="#000000"></path></g></g></svg>