<svg xmlns="http://www.w3.org/2000/svg" version="1.1" xmlns:xlink="http://www.w3.org/1999/xlink" width="512" height="512" x="0" y="0" viewBox="0 0 682.667 682.667" style="enable-background:new 0 0 512 512" xml:space="preserve" class=""><g><defs><clipPath id="a" clipPathUnits="userSpaceOnUse"><path d="M0 512h512V0H0Z" fill="#08cbd8" opacity="1" data-original="#000000"></path></clipPath></defs><path d="M0 0v93.162" style="stroke-width:15;stroke-linecap:round;stroke-linejoin:round;stroke-miterlimit:10;stroke-dasharray:none;stroke-opacity:1" transform="matrix(1.33333 0 0 -1.33333 558.04 395.046)" fill="none" stroke="#08cbd8" stroke-width="15" stroke-linecap="round" stroke-linejoin="round" stroke-miterlimit="10" stroke-dasharray="none" stroke-opacity="" data-original="#000000" opacity="1" class=""></path><path d="M0 0v93.162" style="stroke-width:15;stroke-linecap:round;stroke-linejoin:round;stroke-miterlimit:10;stroke-dasharray:none;stroke-opacity:1" transform="matrix(1.33333 0 0 -1.33333 124.627 395.046)" fill="none" stroke="#08cbd8" stroke-width="15" stroke-linecap="round" stroke-linejoin="round" stroke-miterlimit="10" stroke-dasharray="none" stroke-opacity="" data-original="#000000" opacity="1" class=""></path><path d="M0 0h25.576v-119.658" style="stroke-width:15;stroke-linecap:round;stroke-linejoin:round;stroke-miterlimit:10;stroke-dasharray:none;stroke-opacity:1" transform="matrix(1.33333 0 0 -1.33333 242.974 289.487)" fill="none" stroke="#08cbd8" stroke-width="15" stroke-linecap="round" stroke-linejoin="round" stroke-miterlimit="10" stroke-dasharray="none" stroke-opacity="" data-original="#000000" opacity="1" class=""></path><g clip-path="url(#a)" transform="matrix(1.33333 0 0 -1.33333 0 682.667)"><path d="M0 0c0-19.11-15.491-34.602-34.602-34.602-19.11 0-34.602 15.492-34.602 34.602v55.337c0 19.111 15.492 34.602 34.602 34.602C-15.491 89.939 0 74.448 0 55.337Z" style="stroke-width:15;stroke-linecap:round;stroke-linejoin:round;stroke-miterlimit:10;stroke-dasharray:none;stroke-opacity:1" transform="translate(329.77 207.387)" fill="none" stroke="#08cbd8" stroke-width="15" stroke-linecap="round" stroke-linejoin="round" stroke-miterlimit="10" stroke-dasharray="none" stroke-opacity="" data-original="#000000" opacity="1" class=""></path><path d="m0 0-1.109 3.921a55.852 55.852 0 0 1-37.77 38.313l-72.834 21.739" style="stroke-width:15;stroke-linecap:round;stroke-linejoin:round;stroke-miterlimit:10;stroke-dasharray:none;stroke-opacity:1" transform="translate(466.637 420.59)" fill="none" stroke="#08cbd8" stroke-width="15" stroke-linecap="round" stroke-linejoin="round" stroke-miterlimit="10" stroke-dasharray="none" stroke-opacity="" data-original="#000000" opacity="1" class=""></path><path d="m0 0-72.833-21.738a55.855 55.855 0 0 1-37.77-38.314l-37.828-133.684c-3.816-13.483 3.63-27.587 16.916-32.042l67.909-22.774v-206.353c0-12.237 9.92-22.157 22.157-22.157h280.745c12.237 0 22.158 9.92 22.158 22.157v206.353l67.909 22.774c13.285 4.455 20.732 18.559 16.916 32.042l-27.141 95.917" style="stroke-width:15;stroke-linecap:round;stroke-linejoin:round;stroke-miterlimit:10;stroke-dasharray:none;stroke-opacity:1" transform="translate(157.076 484.563)" fill="none" stroke="#08cbd8" stroke-width="15" stroke-linecap="round" stroke-linejoin="round" stroke-miterlimit="10" stroke-dasharray="none" stroke-opacity="" data-original="#000000" opacity="1" class=""></path><path d="m0 0-3.792 1.19a360.16 360.16 0 0 1-86.444 10.539v-.001.001A360.163 360.163 0 0 1-176.681 1.19L-180.473 0c-8.697-2.729-12.514-13.43-7.664-21.496 7.985-13.282 22.701-32.394 47.814-49.005 20.759-13.73 40.027-21.897 40.835-22.24l.777-.33a21.687 21.687 0 0 1 8.475-1.729v0c2.878 0 5.756.576 8.474 1.729l.778.33c.808.343 20.076 8.51 40.835 22.24C-15.037-53.89-.32-34.778 7.664-21.496 12.514-13.43 8.697-2.729 0 0Z" style="stroke-width:15;stroke-linecap:round;stroke-linejoin:round;stroke-miterlimit:10;stroke-dasharray:none;stroke-opacity:1" transform="translate(346.236 492.771)" fill="none" stroke="#08cbd8" stroke-width="15" stroke-linecap="round" stroke-linejoin="round" stroke-miterlimit="10" stroke-dasharray="none" stroke-opacity="" data-original="#000000" opacity="1" class=""></path><path d="M0 0c12.162-30.873 54.045-55.528 71.47-64.684a14.97 14.97 0 0 1 6.975-1.737v.002-.002c2.386 0 4.77.579 6.975 1.737C102.844-55.528 144.728-30.873 156.89 0" style="stroke-width:15;stroke-linecap:round;stroke-linejoin:round;stroke-miterlimit:10;stroke-dasharray:none;stroke-opacity:1" transform="translate(177.555 495.832)" fill="none" stroke="#08cbd8" stroke-width="15" stroke-linecap="round" stroke-linejoin="round" stroke-miterlimit="10" stroke-dasharray="none" stroke-opacity="" data-original="#000000" opacity="1" class=""></path><path d="M0 0h-34.836" style="stroke-width:15;stroke-linecap:round;stroke-linejoin:round;stroke-miterlimit:10;stroke-dasharray:none;stroke-opacity:1" transform="translate(128.306 41.973)" fill="none" stroke="#08cbd8" stroke-width="15" stroke-linecap="round" stroke-linejoin="round" stroke-miterlimit="10" stroke-dasharray="none" stroke-opacity="" data-original="#000000" opacity="1" class=""></path><path d="M0 0h-254.728" style="stroke-width:15;stroke-linecap:round;stroke-linejoin:round;stroke-miterlimit:10;stroke-dasharray:none;stroke-opacity:1" transform="translate(418.53 41.973)" fill="none" stroke="#08cbd8" stroke-width="15" stroke-linecap="round" stroke-linejoin="round" stroke-miterlimit="10" stroke-dasharray="none" stroke-opacity="" data-original="#000000" opacity="1" class=""></path><path d="m0 0-82.642 27.714" style="stroke-width:15;stroke-linecap:round;stroke-linejoin:round;stroke-miterlimit:10;stroke-dasharray:none;stroke-opacity:1" transform="translate(93.47 270.827)" fill="none" stroke="#08cbd8" stroke-width="15" stroke-linecap="round" stroke-linejoin="round" stroke-miterlimit="10" stroke-dasharray="none" stroke-opacity="" data-original="#000000" opacity="1" class=""></path><path d="m0 0-82.642-27.714" style="stroke-width:15;stroke-linecap:round;stroke-linejoin:round;stroke-miterlimit:10;stroke-dasharray:none;stroke-opacity:1" transform="translate(501.172 298.541)" fill="none" stroke="#08cbd8" stroke-width="15" stroke-linecap="round" stroke-linejoin="round" stroke-miterlimit="10" stroke-dasharray="none" stroke-opacity="" data-original="#000000" opacity="1" class=""></path></g></g></svg>