<svg xmlns="http://www.w3.org/2000/svg" version="1.1" xmlns:xlink="http://www.w3.org/1999/xlink" width="512" height="512" x="0" y="0" viewBox="0 0 128 128" style="enable-background:new 0 0 512 512" xml:space="preserve" class=""><g><path d="M80.154 53.89c2.117 0 4.833-1.422 9.584-4.239a79.615 79.615 0 0 1 8.945-4.78 68.674 68.674 0 0 1 16.6-4.946 1.75 1.75 0 0 0 1.427-2.152 35.532 35.532 0 0 0-4.794-10.858c-.012-.018-.023-.038-.036-.056a38.115 38.115 0 0 0-10.741-10.741c-.018-.013-.038-.024-.057-.036a35.513 35.513 0 0 0-10.857-4.794 1.75 1.75 0 0 0-2.152 1.427 68.616 68.616 0 0 1-4.946 16.6 79.763 79.763 0 0 1-4.78 8.945c-4.763 8.03-5.537 10.247-2.2 13.587 1.369 1.365 2.545 2.043 4.007 2.043zm6.186-23.18c.39-.9.754-1.8 1.106-2.7.693.347 1.469.771 2.3 1.287a195.61 195.61 0 0 1-6.371 7.274 62.891 62.891 0 0 0 2.965-5.861zm-8.646 16.847C84.249 40.978 89.072 35.6 92.6 31.336a24.6 24.6 0 0 1 4.054 4.07c-4.266 3.528-9.638 8.349-16.212 14.9-.816.054-1.225-.342-1.817-.933s-.986-1-.931-1.816zm19.6-5.9a62.667 62.667 0 0 0-5.849 2.957 193.784 193.784 0 0 1 7.245-6.338c.508.827.926 1.6 1.268 2.287a88.68 88.68 0 0 0-2.668 1.097zm5.963-2.311a31.773 31.773 0 0 0-1.822-3.29 73.032 73.032 0 0 1 8.394-5.88A32.186 32.186 0 0 1 112.8 36.8a69.516 69.516 0 0 0-9.547 2.549zm4.626-12.095a76 76 0 0 0-8.5 5.949 28.856 28.856 0 0 0-4.583-4.59 75.917 75.917 0 0 0 5.942-8.489 34.065 34.065 0 0 1 7.133 7.133zM91.2 15.2a32.225 32.225 0 0 1 6.632 2.981 71.162 71.162 0 0 1-5.863 8.38 31.935 31.935 0 0 0-3.3-1.846A69.589 69.589 0 0 0 91.2 15.2zM44.871 29.317a68.616 68.616 0 0 1-4.946-16.6 1.75 1.75 0 0 0-2.152-1.427 35.5 35.5 0 0 0-10.857 4.794c-.019.012-.039.023-.057.036a38.108 38.108 0 0 0-10.742 10.741l-.034.052a35.521 35.521 0 0 0-4.795 10.86 1.75 1.75 0 0 0 1.427 2.152 68.674 68.674 0 0 1 16.6 4.946 79.72 79.72 0 0 1 8.946 4.78c4.75 2.818 7.465 4.239 9.583 4.239 1.462 0 2.638-.678 4-2.041 3.34-3.34 2.566-5.557-2.2-13.6a79.631 79.631 0 0 1-4.773-8.932zM41.66 30.71a62.554 62.554 0 0 0 2.957 5.849 194.03 194.03 0 0 1-6.353-7.264c.826-.513 1.6-.935 2.289-1.281.353.898.717 1.797 1.107 2.696zm-2.322-6a31.952 31.952 0 0 0-3.293 1.838 72.862 72.862 0 0 1-5.866-8.377A32.2 32.2 0 0 1 36.8 15.2a69.589 69.589 0 0 0 2.538 9.513zm-15.916-1.288a34.4 34.4 0 0 1 3.832-3.3A75.917 75.917 0 0 0 33.2 28.61a28.856 28.856 0 0 0-4.582 4.59 76 76 0 0 0-8.5-5.949 34.4 34.4 0 0 1 3.304-3.829zm-5.243 6.75a71.181 71.181 0 0 1 8.4 5.875 31.742 31.742 0 0 0-1.829 3.3A69.554 69.554 0 0 0 15.2 36.8a32.231 32.231 0 0 1 2.979-6.628zm9.867 10.394c.344-.692.762-1.466 1.273-2.3a195.245 195.245 0 0 1 7.255 6.356 62.4 62.4 0 0 0-5.865-2.966 94.404 94.404 0 0 0-2.663-1.09zm21.327 8.807c-.591.592-1 .988-1.816.933-6.575-6.551-11.946-11.372-16.212-14.9a24.5 24.5 0 0 1 4.054-4.07c3.529 4.268 8.352 9.643 14.908 16.221.054.816-.343 1.226-.934 1.816z" fill="#f4512a" opacity="1" data-original="#000000" class=""></path><path d="M122.931 115.235 71.695 64l4.3-4.3a10.312 10.312 0 0 0 4.06.833c4.317 0 8.615-2.549 13.063-5.187a73.2 73.2 0 0 1 8.2-4.4 62.221 62.221 0 0 1 15.24-4.517 8.126 8.126 0 0 0 6.659-9.936 43.738 43.738 0 0 0-31.711-31.71 8.126 8.126 0 0 0-9.936 6.659 62.221 62.221 0 0 1-4.517 15.24 73.2 73.2 0 0 1-4.4 8.2C69.19 40.722 65.885 46.3 68.3 52.009l-4.3 4.3-4.3-4.3c2.411-5.7-.894-11.287-4.357-17.126a73.2 73.2 0 0 1-4.4-8.2 62.176 62.176 0 0 1-4.517-15.24 8.126 8.126 0 0 0-9.936-6.659 43.738 43.738 0 0 0-31.707 31.71 8.126 8.126 0 0 0 6.659 9.936 62.221 62.221 0 0 1 15.24 4.517 73.2 73.2 0 0 1 8.2 4.4c4.448 2.638 8.746 5.187 13.063 5.187a10.316 10.316 0 0 0 4.06-.833l4.3 4.3-51.236 51.234a1.751 1.751 0 0 0 0 2.475l5.221 5.221a1.752 1.752 0 0 0 2.475 0L64 71.695l51.235 51.236a1.752 1.752 0 0 0 2.475 0l5.221-5.221a1.751 1.751 0 0 0 0-2.475zM75.664 36.669a76.253 76.253 0 0 0 4.6-8.594 66.218 66.218 0 0 0 4.766-16.107 4.544 4.544 0 0 1 1.981-3.118 4.591 4.591 0 0 1 2.578-.795 4.749 4.749 0 0 1 1.1.131 40.239 40.239 0 0 1 29.125 29.125 4.592 4.592 0 0 1-.663 3.678 4.544 4.544 0 0 1-3.118 1.981 66.218 66.218 0 0 0-16.107 4.766 76.253 76.253 0 0 0-8.594 4.6C83.45 57.011 79.1 59.21 73.943 54.057s-2.954-9.507 1.721-17.388zm-39 15.667a76.253 76.253 0 0 0-8.594-4.6 66.231 66.231 0 0 0-16.102-4.766 4.544 4.544 0 0 1-3.118-1.981 4.6 4.6 0 0 1-.664-3.678A40.239 40.239 0 0 1 37.311 8.186a4.764 4.764 0 0 1 1.1-.131 4.594 4.594 0 0 1 2.578.8 4.544 4.544 0 0 1 1.981 3.118 66.218 66.218 0 0 0 4.766 16.107 76.253 76.253 0 0 0 4.6 8.594c4.675 7.876 6.874 12.226 1.721 17.383s-9.508 2.954-17.388-1.721zm18.409 5.488a17.593 17.593 0 0 0 2.754-2.738l3.693 3.693-2.746 2.746zm-43.546 61.394-2.745-2.745 61.386-61.387a17.593 17.593 0 0 0 2.754 2.738zm104.946 0-50-50 2.746-2.746 50 50z" fill="#f4512a" opacity="1" data-original="#000000" class=""></path><path d="M73.241 93.048a10.418 10.418 0 1 0-13.987 14.075 1.665 1.665 0 0 0 .285.138 10.4 10.4 0 0 0 13.876-13.852 1.718 1.718 0 0 0-.174-.361zM64 90.929a6.887 6.887 0 0 1 4.582 1.747 13.416 13.416 0 0 0-9.759 9.76A6.913 6.913 0 0 1 64 90.929zm0 13.849a6.9 6.9 0 0 1-2.013-.3 9.959 9.959 0 0 1 8.637-8.637A6.922 6.922 0 0 1 64 104.778z" fill="#f4512a" opacity="1" data-original="#000000" class=""></path></g></svg>