<svg xmlns="http://www.w3.org/2000/svg" version="1.1" xmlns:xlink="http://www.w3.org/1999/xlink" width="512" height="512" x="0" y="0" viewBox="0 0 325.041 325.041" style="enable-background:new 0 0 512 512" xml:space="preserve" class=""><g><path d="M322.527 12.199c-1.143-1.156-3.198-2.535-6.502-2.535-4.23 0-17.1 0-96.105 67.513-32.901 28.114-70.303 62.189-101.975 92.75-.021.021-.047.034-.068.056-.017.017-.028.037-.045.054-9.177 8.856-17.867 17.413-25.828 25.444-49.301 5.987-55.696 37.56-60.849 62.994-4.418 21.811-7.564 33.278-25.637 34.735-2.762.223-5.011 2.342-5.444 5.078-.433 2.736 1.064 5.486 3.623 6.549 1.02.426 25.324 10.541 53.75 10.541h.01c31.21 0 70.925-12.289 83.776-69.823 37.496-38.058 85.295-91.189 122.204-135.857 20.302-24.57 35.903-44.828 46.372-60.211 14.923-21.93 18.251-31.688 12.718-37.288zM122.005 182.698l31.977 32.364a1640.866 1640.866 0 0 1-18.282 19.004l-32.467-32.862a1603.89 1603.89 0 0 1 18.772-18.506zM57.457 303.377h-.009c-12.082 0-23.517-2.178-32.312-4.361 11.79-8.469 14.922-23.962 17.779-38.07 5.017-24.764 9.759-48.222 49.659-53.384l36.562 37.079c-9.245 38.883-33.345 58.736-71.679 58.736zm191.728-195.298c-26.36 31.61-58.044 67.337-86.973 98.241l-31.572-31.956c30.51-29.266 65.794-61.332 97.011-88.011 54.185-46.306 75.798-59.491 83.939-63.226-3.642 8.198-16.598 30.022-62.405 84.952z" fill="#08cbd8" opacity="1" data-original="#000000"></path></g></svg>