<svg width="64" height="64" viewBox="0 0 64 64" fill="none" xmlns="http://www.w3.org/2000/svg">
  <defs>
    <linearGradient id="folderBack" x1="32" y1="14" x2="32" y2="48" gradientUnits="userSpaceOnUse">
      <stop offset="0" stop-color="#4C78A8"></stop>
      <stop offset="1" stop-color="#284E78"></stop>
    </linearGradient>

    <linearGradient id="folderFront" x1="32" y1="22" x2="32" y2="50" gradientUnits="userSpaceOnUse">
      <stop offset="0" stop-color="#6A97C4"></stop>
      <stop offset="1" stop-color="#3E6896"></stop>
    </linearGradient>

    <linearGradient id="folderTab" x1="22" y1="14" x2="22" y2="22" gradientUnits="userSpaceOnUse">
      <stop offset="0" stop-color="#7EABD5"></stop>
      <stop offset="1" stop-color="#517FAA"></stop>
    </linearGradient>

    <linearGradient id="shine" x1="32" y1="18" x2="32" y2="32" gradientUnits="userSpaceOnUse">
      <stop offset="0" stop-color="white" stop-opacity="0.34"></stop>
      <stop offset="1" stop-color="white" stop-opacity="0"></stop>
    </linearGradient>

    <filter id="shadow" x="6" y="10" width="52" height="46" filterUnits="userSpaceOnUse">
      <feDropShadow dx="0" dy="3" stdDeviation="3" flood-color="#02101D" flood-opacity="0.35"></feDropShadow>
    </filter>
  </defs>

  <g filter="url(#shadow)">
    <!-- back -->
    <path d="M16 18.5C16 16.567 17.567 15 19.5 15H27.8C29.2 15 30.06 15.35 30.9 16.35L32.6 18.35C33.18 19.03 33.64 19.25 34.75 19.25H44.5C46.433 19.25 48 20.817 48 22.75V25H16V18.5Z" fill="url(#folderBack)"></path>

    <!-- front -->
    <path d="M16 24.5C16 22.567 17.567 21 19.5 21H44.5C46.433 21 48 22.567 48 24.5V42.5C48 44.433 46.433 46 44.5 46H19.5C17.567 46 16 44.433 16 42.5V24.5Z" fill="url(#folderFront)"></path>

    <!-- tab -->
    <path d="M18 18.3C18 17.03 19.03 16 20.3 16H26.8C27.68 16 28.15 16.18 28.72 16.82L29.9 18.15C30.29 18.59 30.7 18.75 31.5 18.75H33V22H18V18.3Z" fill="url(#folderTab)"></path>

    <!-- front lip -->
    <path d="M16 26.3H48V27.6H16V26.3Z" fill="#7EA8D0" fill-opacity="0.45"></path>

    <!-- glossy shine -->
    <path d="M18.5 22.2H45.5C46.33 22.2 47 22.87 47 23.7V29.5C42.9 27.4 37.5 26.2 30.8 26.2C25.1 26.2 20.8 27.1 17 28.8V23.7C17 22.87 17.67 22.2 18.5 22.2Z" fill="url(#shine)"></path>

    <!-- outline -->
    <path d="M19.5 15.5H27.8C29.02 15.5 29.76 15.78 30.52 16.67L32.22 18.67C32.94 19.52 33.6 19.75 34.75 19.75H44.5C46.157 19.75 47.5 21.093 47.5 22.75V42.5C47.5 44.157 46.157 45.5 44.5 45.5H19.5C17.843 45.5 16.5 44.157 16.5 42.5V18.5C16.5 16.843 17.843 15.5 19.5 15.5Z" stroke="#8AB3DA" stroke-opacity="0.35"></path>
  </g>
</svg>